<?xml version="1.0" encoding="utf-8"?>
<!-- Generator: Adobe Illustrator 23.0.5, SVG Export Plug-In . SVG Version: 6.00 Build 0)  -->
<svg version="1.1" xmlns="http://www.w3.org/2000/svg" xmlns:xlink="http://www.w3.org/1999/xlink" x="0px" y="0px"
	 viewBox="0 0 500 500" style="enable-background:new 0 0 500 500;" xml:space="preserve">
<style type="text/css">
	.st0{display:none;}
	.st1{display:inline;fill:#75BEEB;}
	.st2{fill:#56A2D1;}
	.st3{fill:#FCB681;}
	.st4{fill:#F5DDE0;}
	.st5{fill:#D2EDF7;}
	.st6{fill:#DDE8F2;}
	.st7{fill:#FFFFFF;}
	.st8{fill:#FFC1BA;}
	.st9{fill:#402A25;}
	.st10{fill:none;stroke:#FFC1BA;stroke-linecap:round;stroke-miterlimit:10;}
	.st11{fill:none;stroke:#FFC1BA;stroke-linecap:round;stroke-linejoin:round;stroke-miterlimit:10;}
	.st12{fill:#4B7D3F;}
	.st13{fill:#5B994D;}
	.st14{fill:#FFA217;}
	.st15{fill:#C23C52;}
	.st16{fill:#E64761;}
	.st17{display:inline;fill:#56A2D1;}
	.st18{display:inline;fill:#F5DDE0;}
	.st19{display:inline;}
	.st20{fill:#EB7587;}
	.st21{display:inline;fill:#FFFFFF;}
	.st22{fill:#D57DEB;}
	.st23{fill:#94E382;}
	.st24{display:inline;fill:#FFC1BA;}
	.st25{fill:#FFBC2B;}
	.st26{fill:#DADAE6;}
	.st27{fill:#FF4570;}
	.st28{fill:#4A4A52;}
	.st29{fill:#FFE682;}
	.st30{display:inline;fill:#FCB681;}
	.st31{display:inline;fill:#EBCDB7;}
	.st32{display:inline;fill:#A16652;}
	.st33{display:inline;fill:#C98E85;}
</style>
<g id="BACKGROUND" class="st0">
	<rect x="0" y="0" class="st1" width="500" height="500"/>
</g>
<g id="OBJECTS">
	<g>
		<path class="st2" d="M154,147.4c0,2.7-19.4,4.8-43.4,4.8c-24,0-43.4-2.2-43.4-4.8c0-2.7,19.4-4.8,43.4-4.8
			C134.6,142.6,154,144.8,154,147.4z"/>
		<g>
			<path class="st3" d="M150.3,114.5h-7.2V93c0-13.2-10.8-24-24-24h-16.8c-13.2,0-24,10.8-24,24v21.4H71V93
				c0-17.2,14-31.2,31.2-31.2h16.8c17.2,0,31.2,14,31.2,31.2V114.5z"/>
		</g>
		<path class="st4" d="M137.4,119.4c0,13.4-12,20.4-26.8,20.4c-14.8,0-26.8-6.9-26.8-20.4s12-27.6,26.8-27.6
			C125.4,91.8,137.4,105.9,137.4,119.4z"/>
		<path class="st5" d="M152,113.2c0,0-6.9,20.7-9.8,26c-2.8,5.4-5.2,8.2-10.2,8.2c-5,0-21.4,0-21.4,0s-16.4,0-21.4,0
			c-5,0-7.4-2.8-10.2-8.2c-2.8-5.4-9.8-26-9.8-26H152z"/>
		<path class="st6" d="M72.8,123.4h75.7c2-5.5,3.5-10.2,3.5-10.2H69.3C69.3,113.2,70.8,117.9,72.8,123.4z"/>
		<g>
			<g>
				<g>
					<path class="st7" d="M100.3,42.8c4.1,11,4.5,23.7,0,25.4c-4.6,1.7-12.5-8.2-16.6-19.2c-4.1-11-2.8-18.8,1.8-20.5
						C90.1,26.7,96.2,31.8,100.3,42.8z"/>
					<path class="st8" d="M98.2,49.1c2.8,7.5,3.7,16,1.2,16.9C97,67,92.1,59.9,89.3,52.4c-2.8-7.5-2.4-12.7,0-13.6
						C91.8,37.9,95.5,41.6,98.2,49.1z"/>
				</g>
				<g>
					<path class="st7" d="M121,42.8c-4.1,11-4.5,23.7,0,25.4c4.6,1.7,12.5-8.2,16.6-19.2c4.1-11,2.8-18.8-1.8-20.5
						C131.2,26.7,125.1,31.8,121,42.8z"/>
					<path class="st8" d="M123,49.1c-2.8,7.5-3.7,16-1.2,16.9c2.5,0.9,7.3-6.1,10.1-13.6c2.8-7.5,2.4-12.7,0-13.6
						C129.5,37.9,125.8,41.6,123,49.1z"/>
				</g>
			</g>
			<path class="st7" d="M135.3,84c0,12.4-11,18.8-24.7,18.8C97,102.7,86,96.4,86,84c0-12.4,11-25.4,24.7-25.4
				C124.3,58.5,135.3,71.6,135.3,84z"/>
			<g>
				<path class="st9" d="M102.2,84.1c0,1.5-1.1,2.7-2.5,2.7c-1.4,0-2.5-1.2-2.5-2.7c0-1.5,1.1-2.7,2.5-2.7
					C101.1,81.4,102.2,82.6,102.2,84.1z"/>
				<path class="st9" d="M124,84.1c0,1.5-1.1,2.7-2.5,2.7c-1.4,0-2.5-1.2-2.5-2.7c0-1.5,1.1-2.7,2.5-2.7
					C122.9,81.4,124,82.6,124,84.1z"/>
			</g>
			<g>
				<g>
					<line class="st10" x1="94.1" y1="91.3" x2="95.6" y2="89.7"/>
					<line class="st10" x1="96.2" y1="91.3" x2="97.7" y2="89.7"/>
					<line class="st10" x1="98.4" y1="91.3" x2="99.9" y2="89.7"/>
				</g>
				<g>
					<line class="st10" x1="121.4" y1="91.3" x2="122.9" y2="89.7"/>
					<line class="st10" x1="123.5" y1="91.3" x2="125" y2="89.7"/>
					<line class="st10" x1="125.7" y1="91.3" x2="127.2" y2="89.7"/>
				</g>
			</g>
			<path class="st8" d="M113.6,92.2c0,1.1-1.3,2.7-3,2.7c-1.6,0-3-1.5-3-2.7c0-1.1,1.3-1.5,3-1.5C112.3,90.7,113.6,91,113.6,92.2z"
				/>
			<path class="st11" d="M114.2,98.1c0,0-2.3,0.3-3.5-1.9c-1.2,2.1-3.5,1.9-3.5,1.9"/>
		</g>
		<path class="st5" d="M154.5,113.5c0,1.6-1.3,2.8-2.8,2.8H69.5c-1.6,0-2.8-1.3-2.8-2.8V111c0-1.6,1.3-2.8,2.8-2.8h82.2
			c1.6,0,2.8,1.3,2.8,2.8V113.5z"/>
		<g>
			<path class="st12" d="M113.1,121.9c0,2.8-1.1,6.3-2.5,6.3c-1.4,0-2.5-3.5-2.5-6.3c0-2.8,1.1-3.9,2.5-3.9
				C112,118,113.1,119.1,113.1,121.9z"/>
			<g>
				<path class="st13" d="M108.5,123.1c1.6,1.8,2.9,4.6,2.1,5.4c-0.9,0.8-3.6-0.7-5.2-2.5c-1.6-1.8-1.5-3.1-0.7-3.9
					C105.5,121.3,106.9,121.3,108.5,123.1z"/>
				<path class="st13" d="M112.8,123.1c-1.6,1.8-2.9,4.6-2.1,5.4c0.9,0.8,3.6-0.7,5.2-2.5c1.6-1.8,1.5-3.1,0.7-3.9
					C115.7,121.3,114.4,121.3,112.8,123.1z"/>
			</g>
			<path class="st14" d="M117,132.4c0,4.2-2.9,10.2-6.4,10.2c-3.5,0-6.4-6-6.4-10.2c0-4.2,2.9-4.9,6.4-4.9
				C114.2,127.5,117,128.3,117,132.4z"/>
		</g>
		<g>
			<g>
				<path class="st7" d="M101.5,106c2.5,4.4,1.9,9.5-1.4,11.4c-3.3,1.9-8-0.1-10.6-4.5c-2.5-4.4-1.9-9.5,1.4-11.4
					C94.3,99.6,99,101.6,101.5,106z"/>
				<g>
					<path class="st8" d="M97.8,118.1l-1.6-2.8c-0.1-0.2-0.4-0.3-0.6-0.2c-0.2,0.1-0.3,0.4-0.2,0.6l1.3,2.3
						C97.1,118.1,97.5,118.1,97.8,118.1z"/>
					<path class="st8" d="M100.4,112.4c-0.2,0.1-0.3,0.4-0.2,0.6l1.6,2.8c0.2-0.3,0.4-0.6,0.5-0.9l-1.3-2.3
						C100.9,112.3,100.7,112.2,100.4,112.4z"/>
					<path class="st8" d="M100.5,117.2l-2.4-4.2c-0.1-0.2-0.4-0.3-0.6-0.2c-0.2,0.1-0.3,0.4-0.2,0.6l2.4,4.2
						c0.1-0.1,0.3-0.1,0.4-0.2C100.3,117.3,100.4,117.3,100.5,117.2z"/>
				</g>
			</g>
			<g>
				<path class="st7" d="M119.7,106c-2.5,4.4-1.9,9.5,1.4,11.4c3.3,1.9,8-0.1,10.6-4.5c2.5-4.4,1.9-9.5-1.4-11.4
					C127,99.6,122.3,101.6,119.7,106z"/>
				<g>
					<path class="st8" d="M123.5,118.1l1.6-2.8c0.1-0.2,0.4-0.3,0.6-0.2c0.2,0.1,0.3,0.4,0.2,0.6l-1.3,2.3
						C124.2,118.1,123.8,118.1,123.5,118.1z"/>
					<path class="st8" d="M120.9,112.4c0.2,0.1,0.3,0.4,0.2,0.6l-1.6,2.8c-0.2-0.3-0.4-0.6-0.5-0.9l1.3-2.3
						C120.3,112.3,120.6,112.2,120.9,112.4z"/>
					<path class="st8" d="M120.8,117.2l2.4-4.2c0.1-0.2,0.4-0.3,0.6-0.2c0.2,0.1,0.3,0.4,0.2,0.6l-2.4,4.2c-0.1-0.1-0.3-0.1-0.4-0.2
						C121,117.3,120.9,117.3,120.8,117.2z"/>
				</g>
			</g>
		</g>
		<g>
			<path class="st15" d="M102.9,99.3c-3,0.6-2.7,3.7-2.7,5.5c0,1.8-0.3,4.8,2.7,5.5c3,0.6,7.2-5.5,7.2-5.5S105.9,98.7,102.9,99.3z"
				/>
			<path class="st15" d="M118.4,99.3c3,0.6,2.7,3.7,2.7,5.5c0,1.8,0.3,4.8-2.7,5.5c-3,0.6-7.2-5.5-7.2-5.5S115.4,98.7,118.4,99.3z"
				/>
		</g>
		<path class="st16" d="M113.6,104.8c0,1.7-1.3,3-3,3c-1.7,0-3-1.3-3-3c0-1.7,1.3-3,3-3C112.3,101.8,113.6,103.1,113.6,104.8z"/>
	</g>
	<g class="st0">
		<path class="st17" d="M292.9,147.4c0,2.7-19.4,4.8-43.4,4.8c-24,0-43.4-2.2-43.4-4.8c0-2.7,19.4-4.8,43.4-4.8
			C273.4,142.6,292.9,144.8,292.9,147.4z"/>
		<path class="st18" d="M221.5,129.6c0,0-4.9-6.4-7.4-5.4c-2.5,0.9-3.9,12.9,3.7,18c-3.5,0.4-2.9,2-1.9,2.7c1,0.7,7.8,2.5,11.7-1.1
			L221.5,129.6z"/>
		<path class="st18" d="M255.4,98.5c0,0,1.6,2.7,4.6,3.8c3,1.1,9.9,3,10.2,5.8c0.4,2.8-5.2,7.3-8.6,8.1v24.3h-21.1v-39.8L255.4,98.5
			z"/>
		<g class="st19">
			<path class="st20" d="M293.8,130.4c-4.7,14.5-16.4,19.5-27.7,15.9c-11.3-3.6-17.9-14.6-13.3-29.1c4.7-14.5,18.9-27.1,30.2-23.5
				C294.3,97.4,298.5,115.9,293.8,130.4z"/>
		</g>
		<path class="st21" d="M227.1,102.5c2.6,2.7,3.9,4.7,1.4,10.5c-2,4.7-8.1,7.9-8,18.9c0.1,11,6.3,15.5,17.3,15.5
			c11,0,12.7-3.1,15.2-2c2.5,1.1,3.4,2,6,2c2.6,0,19.4-6,19.9-8.2c0.5-2.2-2-5.6-6.9-5.7c-4.9-0.1-9.3,2.5-11.4,2
			c-0.4-5.2-4.4-12.4-12.1-12.5c0,0,5.7-6.2,4.2-16.7c-1.2-8.4-3.9-9.3-3.9-9.3L227.1,102.5z"/>
		<path class="st18" d="M244.5,98.1l-17.4,4.5c1.3,1.4,2.3,2.6,2.6,4.3c3.5,0,9.3-0.6,14.4-3.2C244.1,103.6,244.4,100.8,244.5,98.1z
			"/>
		<g class="st19">
			<g>
				<g>
					<path class="st7" d="M223.3,46.4c5.9,10.1,8.6,22.5,4.3,25c-4.2,2.5-13.7-6-19.6-16.1c-5.9-10.1-6-18.1-1.7-20.5
						C210.5,32.3,217.4,36.2,223.3,46.4z"/>
					<path class="st8" d="M222.4,53c4,6.9,6.4,15.1,4.1,16.5c-2.3,1.3-8.3-4.7-12.3-11.7c-4-6.9-4.6-12.1-2.3-13.4
						C214.1,43,218.3,46,222.4,53z"/>
				</g>
				<g>
					<path class="st7" d="M243.7,42.8c-2.1,11.5-0.4,24.1,4.4,25c4.8,0.9,10.9-10.3,13-21.8c2.1-11.5-0.5-19-5.3-19.9
						C251,25.2,245.8,31.3,243.7,42.8z"/>
					<path class="st8" d="M246.8,48.7c-1.5,7.9-0.8,16.4,1.7,16.9c2.6,0.5,6.2-7.3,7.6-15.2c1.5-7.9,0.2-12.9-2.4-13.4
						C251.2,36.5,248.3,40.8,246.8,48.7z"/>
				</g>
			</g>
			<path class="st7" d="M264.9,80.9c2.1,12.2-7.6,20.4-21.1,22.7c-13.4,2.3-25.4-2.1-27.5-14.3c-2.1-12.2,6.5-26.9,19.9-29.3
				C249.6,57.8,262.7,68.7,264.9,80.9z"/>
			<g>
				<path class="st9" d="M232.3,86.7c0.3,1.4-0.6,2.8-2,3c-1.3,0.2-2.6-0.7-2.9-2.2c-0.3-1.4,0.6-2.8,2-3
					C230.8,84.3,232.1,85.3,232.3,86.7z"/>
				<path class="st9" d="M253.7,83c0.3,1.4-0.6,2.8-2,3c-1.3,0.2-2.6-0.7-2.9-2.2c-0.3-1.4,0.6-2.8,2-3
					C252.2,80.6,253.5,81.5,253.7,83z"/>
			</g>
			<g>
				<g>
					<line class="st10" x1="225.6" y1="95.3" x2="226.8" y2="93.4"/>
					<line class="st10" x1="227.7" y1="94.9" x2="228.9" y2="93.1"/>
					<line class="st10" x1="229.8" y1="94.5" x2="231" y2="92.7"/>
				</g>
				<g>
					<line class="st10" x1="252.4" y1="90.6" x2="253.7" y2="88.8"/>
					<line class="st10" x1="254.6" y1="90.2" x2="255.8" y2="88.4"/>
					<line class="st10" x1="256.7" y1="89.8" x2="257.9" y2="88"/>
				</g>
			</g>
			<path class="st8" d="M244.9,92.8c0.2,1.1-0.9,2.8-2.5,3.1c-1.6,0.3-3.2-1-3.4-2.1c-0.2-1.1,1.1-1.7,2.7-2
				C243.4,91.5,244.7,91.6,244.9,92.8z"/>
			<path class="st11" d="M246.5,98.5c0,0-2.3,0.7-3.8-1.2c-0.8,2.3-3.2,2.4-3.2,2.4"/>
		</g>
		<path class="st21" d="M250.1,106.5c0,0,4.4-0.1,8.8,0.5c4.4,0.7,6.4,3.2,6.2,5.3c-0.3,3.2-7.6,6.5-17.7,7.3L250.1,106.5z"/>
	</g>
	<g class="st0">
		<path class="st17" d="M430.7,147.4c0,2.7-19.4,4.8-43.4,4.8c-24,0-43.4-2.2-43.4-4.8c0-2.7,19.4-4.8,43.4-4.8
			C411.3,142.6,430.7,144.8,430.7,147.4z"/>
		<polygon class="st18" points="393.8,98.1 395.9,143.1 373.7,143.1 373.7,95.9 		"/>
		<path class="st18" d="M420.8,126.3c0,0,4-8.3,7-7.8c3,0.5,7.3,13.5,0,21c3.9-0.4,3.7,1.6,2.7,2.6c-1,1-8.2,4.5-13.3,1.4
			L420.8,126.3z"/>
		<g class="st19">
			<path class="st22" d="M385.4,130.4c-4.7,14.5-16.4,19.5-27.7,15.9c-11.3-3.6-17.9-14.6-13.3-29.1c4.7-14.5,18.9-27.1,30.2-23.5
				C385.9,97.4,390,115.9,385.4,130.4z"/>
		</g>
		<g class="st19">
			<g>
				<g>
					<path class="st7" d="M380.5,41.3c1.6,11.6-0.6,24.1-5.5,24.8c-4.8,0.7-10.4-10.7-12.1-22.3c-1.6-11.6,1.3-19,6.2-19.7
						C374,23.4,378.9,29.7,380.5,41.3z"/>
					<path class="st8" d="M377.2,47.1c1.1,7.9,0.2,16.4-2.4,16.8c-2.6,0.4-5.9-7.5-7-15.5c-1.1-7.9,0.3-12.9,2.9-13.3
						C373.3,34.7,376.1,39.1,377.2,47.1z"/>
				</g>
				<g>
					<path class="st7" d="M400.8,45.7c-6.3,9.9-9.5,22.2-5.4,24.8c4.1,2.6,14-5.4,20.3-15.2c6.3-9.9,6.7-17.8,2.6-20.5
						C414.2,32.2,407.2,35.9,400.8,45.7z"/>
					<path class="st8" d="M401.4,52.4c-4.3,6.8-7,14.9-4.8,16.3c2.2,1.4,8.5-4.4,12.8-11.1s5.1-11.9,2.9-13.3
						C410.1,42.8,405.8,45.6,401.4,52.4z"/>
				</g>
			</g>
			<path class="st7" d="M406,89c-2.6,12.1-14.8,16-28.1,13.1c-13.3-2.9-22.7-11.5-20.1-23.6c2.6-12.1,16.2-22.5,29.5-19.6
				C400.6,61.8,408.6,76.9,406,89z"/>
			<g>
				<path class="st9" d="M373.7,82.1c-0.3,1.4-1.6,2.4-3,2.1c-1.3-0.3-2.2-1.7-1.8-3.1c0.3-1.4,1.6-2.4,3-2.1
					C373.1,79.2,374,80.6,373.7,82.1z"/>
				<path class="st9" d="M394.9,86.7c-0.3,1.4-1.6,2.4-3,2.1c-1.3-0.3-2.2-1.7-1.8-3.1c0.3-1.4,1.6-2.4,3-2.1
					C394.4,83.9,395.2,85.3,394.9,86.7z"/>
			</g>
			<g>
				<g>
					<line class="st10" x1="364.1" y1="87.4" x2="366" y2="86.2"/>
					<line class="st10" x1="366.2" y1="87.9" x2="368" y2="86.6"/>
					<line class="st10" x1="368.3" y1="88.3" x2="370.1" y2="87.1"/>
				</g>
				<g>
					<line class="st10" x1="390.8" y1="93.2" x2="392.6" y2="92"/>
					<line class="st10" x1="392.9" y1="93.7" x2="394.7" y2="92.5"/>
					<line class="st10" x1="395" y1="94.2" x2="396.8" y2="92.9"/>
				</g>
			</g>
			<path class="st8" d="M383,92.4c-0.2,1.1-1.9,2.3-3.5,2c-1.6-0.3-2.6-2.1-2.3-3.2c0.2-1.1,1.6-1.2,3.2-0.8
				C382,90.7,383.3,91.3,383,92.4z"/>
			<path class="st11" d="M382.3,98.3c0,0-2.3-0.3-3.1-2.6c-1.6,1.8-3.8,1.1-3.8,1.1"/>
		</g>
		<g class="st19">
			<path class="st7" d="M365.6,98.9c0.7,4.2-1.2,8.1-4.4,8.7c-3.2,0.6-6.4-2.4-7.1-6.6c-0.7-4.2,1.2-8.1,4.4-8.7
				C361.7,91.7,364.9,94.7,365.6,98.9z"/>
			<g>
				<path class="st8" d="M359.2,107.4l-0.5-2.7c0-0.2-0.2-0.4-0.5-0.3c-0.2,0-0.4,0.2-0.3,0.5l0.4,2.2
					C358.6,107.3,358.9,107.4,359.2,107.4z"/>
				<path class="st8" d="M362.9,103.6c-0.2,0-0.4,0.2-0.3,0.5l0.5,2.7c0.2-0.2,0.5-0.4,0.7-0.6l-0.4-2.2
					C363.3,103.7,363.1,103.6,362.9,103.6z"/>
				<path class="st8" d="M361.6,107.5l-0.7-4c0-0.2-0.2-0.4-0.5-0.3c-0.2,0-0.4,0.2-0.3,0.5l0.7,4c0.1,0,0.3,0,0.4,0
					C361.3,107.5,361.4,107.5,361.6,107.5z"/>
			</g>
		</g>
		<path class="st21" d="M386.9,104.4c0,0-10.7,6.5-10.5,12.7c0.2,6.2,14,2.5,14,2.5c-7.7,4.9-6.6,15.5-3.2,19.6
			c-8.9-0.9-13.8,8.2-9.3,8.2c0,0,30.6,0,33.6,0s8-1.7,10.5-8.8c2.5-7,2.3-18.7-7.5-25.9c-9.8-7.3-13.5-9.5-11.6-17
			C403,95.7,392.3,99.7,386.9,104.4z"/>
	</g>
	<g class="st0">
		<path class="st18" d="M207.6,244.6c-4.3,7.7-2.8,18.9,1.9,18.7c4.7-0.2,12.6-19,12.6-19L207.6,244.6z"/>
		<path class="st18" d="M292.5,230c0,0,2.3-10.7,5.9-11c3.6-0.3,12.3,13.5,6,24.3c4.4-1.6,4.7,0.8,3.9,2.2c-0.8,1.4-8.2,7.6-15,5.5
			L292.5,230z"/>
		<path class="st17" d="M292.9,296.3c0,2.7-19.4,4.8-43.4,4.8c-24,0-43.4-2.2-43.4-4.8c0-2.7,19.4-4.8,43.4-4.8
			C273.4,291.5,292.9,293.7,292.9,296.3z"/>
		<g class="st19">
			<path class="st23" d="M251.1,239.1c21.4,0,33.1,12.9,33.1,28.8s-11.7,28.8-33.1,28.8c-21.4,0-44.3-12.9-44.3-28.8
				S229.7,239.1,251.1,239.1z"/>
		</g>
		<path class="st21" d="M217.5,243.5c-4.1,4.5-6.6,11.1-5.6,15.6c1,4.5,2.8,6.7,6.8,4.3c4-2.4,8.8-11.8,16.9-11.9
			c8-0.1,13.7,1.3,20.9,0.2c4.5,9.1,6.4,10.9,13.9,13.7c7.5,2.8,11.5,3.3,13.4,7.8c1.9,4.5,5.6,10,10.5,11.1c4.8,1,9.4-2,7.5-5.7
			c-1.9-3.7-3.6-5.2-3.6-9.1s-0.6-6.2-1.9-7.8c-1.3-1.6-2.7-4.6-1.5-10.4c1.2-5.8,5.6-21-9.3-34.9c-12.6-11.7-43-10.2-51.1,1
			C226.4,228.6,217.5,243.5,217.5,243.5z"/>
		<g class="st19">
			<path class="st4" d="M196.2,210.1c4.1-28.7,24.6-40.7,27-41.3c1.1-0.3,5.3,8,2,17.1c-4.3,11.8-20.9,21.5-20.9,21.5L196.2,210.1z"
				/>
			<path class="st7" d="M215.6,202c23.2-17.4,46.2-11.5,48.3-10.2c1,0.6-1.9,9.5-10.6,13.5c-11.4,5.3-30,0.5-30,0.5L215.6,202z"/>
			<path class="st7" d="M236.8,215.7c5.6,11-1.3,21.7-13.5,27.9c-12.1,6.2-24.9,5.5-30.5-5.5c-5.6-11-1.7-27.7,10.4-33.8
				C215.5,198.1,231.2,204.7,236.8,215.7z"/>
			<g>
				<path class="st9" d="M207.4,230.8c0.7,1.3,0.2,2.9-1,3.5c-1.2,0.6-2.7,0.1-3.4-1.3c-0.7-1.3-0.2-2.9,1-3.5
					C205.2,228.9,206.8,229.5,207.4,230.8z"/>
				<path class="st9" d="M226.8,221c0.7,1.3,0.2,2.9-1,3.5c-1.2,0.6-2.7,0.1-3.4-1.2c-0.7-1.3-0.2-2.9,1-3.5
					C224.6,219.1,226.1,219.6,226.8,221z"/>
			</g>
			<g>
				<g>
					<line class="st10" x1="203.4" y1="241" x2="204.1" y2="238.9"/>
					<line class="st10" x1="205.4" y1="240" x2="206" y2="237.9"/>
					<line class="st10" x1="207.3" y1="239" x2="207.9" y2="236.9"/>
				</g>
				<g>
					<line class="st10" x1="227.8" y1="228.6" x2="228.4" y2="226.5"/>
					<line class="st10" x1="229.7" y1="227.6" x2="230.3" y2="225.5"/>
					<line class="st10" x1="231.6" y1="226.6" x2="232.2" y2="224.5"/>
				</g>
			</g>
			<path class="st8" d="M221.2,232.9c0.5,1,0,3-1.4,3.7c-1.5,0.7-3.3,0-3.8-1c-0.5-1,0.5-1.9,2-2.7
				C219.4,232.2,220.7,231.9,221.2,232.9z"/>
			<path class="st11" d="M224.4,237.9c0,0-2,1.3-4,0c-0.1,2.4-2.3,3.3-2.3,3.3"/>
		</g>
	</g>
	<g class="st0">
		<path class="st17" d="M434,296.3c0,2.7-19.4,4.8-43.4,4.8c-24,0-43.4-2.2-43.4-4.8c0-2.7,19.4-4.8,43.4-4.8
			C414.5,291.5,434,293.7,434,296.3z"/>
		<path class="st18" d="M412.7,250c0,0,6.5-0.8,7.8,1.3c1.3,2.1-4.9,5.9-4.9,5.9L412.7,250z"/>
		<path class="st18" d="M390.5,249.5c0,0-2.7,2.2-3.3,7.7c-0.6,5.5-4,11.7-3.5,23.1c0.5,11.4,5.6,13.6,13.6,13.6s9.3,0.5,11.5,0.5
			c2.2,0,4.8,2.3,7.4,2.3c2.6,0,7-5.3,8-11.9c1.1-6.6,0.6-10.8-2.6-11c-3.2-0.2-7.3,3.3-8.9,5.5c-1.5-5.6-4.5-9-9.7-9.4l0.3-3.3
			c0,0,13.9-7.3,10.1-11.8c-1.8-2.1-9.3,0.1-9.3,0.1l1.3-5.6L390.5,249.5z"/>
		<path class="st24" d="M422.3,288.1c-1.5,3.8-4.1,6.4-5.7,5.7c-1.7-0.7-1.8-4.3-0.3-8.1c1.5-3.8,4.1-6.4,5.7-5.7
			C423.7,280.7,423.9,284.3,422.3,288.1z"/>
		<path class="st18" d="M372,275.2c0,0-4.1-8.4-7.1-7.9c-3,0.5-7.3,13.7,0,21.3c-4-0.4-3.7,1.6-2.7,2.6c1,1,8.3,4.6,13.4,1.4
			L372,275.2z"/>
		<g class="st19">
			<g>
				<g>
					<path class="st7" d="M370.2,194.6c6.7,9.6,10.3,21.8,6.3,24.6c-4,2.8-14.2-4.8-20.9-14.4c-6.7-9.6-7.4-17.5-3.4-20.3
						C356.3,181.6,363.5,185,370.2,194.6z"/>
					<path class="st8" d="M369.9,201.2c4.6,6.6,7.6,14.6,5.4,16.1c-2.2,1.5-8.6-4.1-13.2-10.6c-4.6-6.6-5.6-11.7-3.4-13.2
						C360.8,192,365.3,194.7,369.9,201.2z"/>
				</g>
				<g>
					<path class="st7" d="M390.3,189.4c-1.2,11.6,1.5,24.1,6.4,24.5s10-11.1,11.2-22.8c1.2-11.6-2.1-18.9-6.9-19.4
						C396.1,171.2,391.5,177.7,390.3,189.4z"/>
					<path class="st8" d="M393.9,195c-0.8,8,0.5,16.4,3.1,16.7c2.6,0.3,5.6-7.7,6.4-15.7c0.8-8-0.8-12.9-3.5-13.2
						C397.3,182.5,394.7,187,393.9,195z"/>
				</g>
			</g>
			<path class="st7" d="M414.5,225.7c3.1,12-6,20.9-19.1,24.4c-13.2,3.4-25.5,0-28.6-12c-3.1-12,4.3-27.4,17.5-30.8
				C397.4,203.8,411.4,213.7,414.5,225.7z"/>
			<g>
				<path class="st9" d="M382.5,234.1c0.4,1.4-0.4,2.8-1.7,3.2c-1.3,0.3-2.7-0.5-3-2c-0.4-1.4,0.4-2.8,1.7-3.2
					C380.8,231.8,382.2,232.7,382.5,234.1z"/>
				<path class="st9" d="M403.5,228.6c0.4,1.4-0.4,2.8-1.7,3.2c-1.3,0.3-2.7-0.5-3-2c-0.4-1.4,0.4-2.8,1.7-3.2
					C401.8,226.3,403.2,227.2,403.5,228.6z"/>
			</g>
			<g>
				<g>
					<line class="st10" x1="376.5" y1="243.1" x2="377.5" y2="241.2"/>
					<line class="st10" x1="378.5" y1="242.6" x2="379.6" y2="240.7"/>
					<line class="st10" x1="380.6" y1="242.1" x2="381.7" y2="240.2"/>
				</g>
				<g>
					<line class="st10" x1="402.9" y1="236.3" x2="403.9" y2="234.4"/>
					<line class="st10" x1="405" y1="235.7" x2="406" y2="233.8"/>
					<line class="st10" x1="407" y1="235.2" x2="408.1" y2="233.3"/>
				</g>
			</g>
			<path class="st8" d="M395.6,239.1c0.3,1.1-0.6,2.9-2.2,3.3c-1.6,0.4-3.3-0.7-3.5-1.8c-0.3-1.1,0.9-1.8,2.5-2.2
				C393.9,238,395.3,238,395.6,239.1z"/>
			<path class="st11" d="M397.6,244.7c0,0-2.2,0.8-3.9-0.9c-0.6,2.3-3,2.7-3,2.7"/>
		</g>
		<g class="st19">
			<path class="st14" d="M420.7,262.2c1.5,10.8-4.2,17.7-12.3,18.8c-8.1,1.1-15.4-3.9-16.9-14.8c-1.5-10.8,3.4-23.4,11.5-24.5
				C411,240.6,419.2,251.4,420.7,262.2z"/>
		</g>
		<path class="st21" d="M376.5,249.5c0,0,2.7,2.7,2.1,8.2c-0.6,5.5-9.4,11.2-8.9,22.6c0.5,11.4,6.7,16.4,14.8,16.4
			c8.1,0,8.1-2.3,10.4-2.3c2.2,0,4.8,2.3,7.4,2.3c2.6,0,7-5.3,8-11.9c1.1-6.6,0.6-10.8-2.6-11c-3.2-0.2-7.3,3.3-8.9,5.5
			c-1.5-5.6-4.5-9-9.7-9.4l0.3-3.3c0,0,13.9-7.3,10.1-11.8c-1.8-2.1-9.3,0.1-9.3,0.1l1.3-5.6L376.5,249.5z"/>
		<path class="st24" d="M408.3,288.1c-1.5,3.8-4.1,6.4-5.7,5.7c-1.7-0.7-1.8-4.3-0.3-8.1c1.5-3.8,4.1-6.4,5.7-5.7
			C409.7,280.7,409.8,284.3,408.3,288.1z"/>
	</g>
	<g class="st0">
		<path class="st17" d="M154,296.3c0,2.7-19.4,4.8-43.4,4.8c-24,0-43.4-2.2-43.4-4.8c0-2.7,19.4-4.8,43.4-4.8
			C134.6,291.5,154,293.7,154,296.3z"/>
		<g class="st19">
			<path class="st25" d="M105.6,253.5c13.5,10.4,14.7,24.3,7,34.3c-7.7,10.1-21.4,12.6-35,2.2c-13.5-10.4-21.8-29.7-14.1-39.8
				C71.3,240.1,92.1,243.1,105.6,253.5z"/>
		</g>
		<path class="st18" d="M149.6,274.8c0,0,5.6-7.8,8.6-6.8c3,1,5.1,15.2-3.7,21.7c4.1,0.3,3.5,2.3,2.3,3.1c-1.2,0.9-9.3,3.2-13.9-0.9
			L149.6,274.8z"/>
		<path class="st21" d="M126.3,243.1c-0.4,6.1,9.7,10.8,16.7,15.2c7,4.3,9.1,11.8,8.7,19.7c-0.5,7.8-2.9,18.8-18.2,18.8
			c-15.2,0-26.4,0-29.8,0c-3.4,0-3.5-5.5-0.9-8.1c2.6-2.6,9.5-4.1,9.5-4.1c-6.6-9.1-4-21.3,2.4-25l-3.4-6.6L126.3,243.1z"/>
		<path class="st18" d="M114.9,261.6c3.9-2.1,5.4-7.7,5.4-7.7c4-1.8,6.7-4.4,8-5.9c-1.3-1.5-2-3.2-1.9-4.9l-14.9,9.9l3.4,6.6
			c-0.2,0.1-0.5,0.3-0.7,0.5L114.9,261.6z"/>
		<g class="st19">
			<path class="st4" d="M103.1,210c25.8-13.2,47.5-3.5,49.3-1.8c0.9,0.8-3.5,9-12.8,11.5c-12.2,3.3-29.6-4.6-29.6-4.6L103.1,210z"/>
			<path class="st7" d="M122.1,219c27,10.5,34.2,33.1,34.2,35.6c0,1.2-9,3.4-17.1-1.9c-10.5-6.9-16.3-25.2-16.3-25.2L122.1,219z"/>
			<path class="st7" d="M126,243.9c-4.5,11.6-17.1,13.5-29.8,8.6c-12.7-4.9-20.7-14.9-16.2-26.4c4.5-11.6,19.5-19.7,32.2-14.8
				C124.9,216.2,130.5,232.4,126,243.9z"/>
			<g>
				<path class="st9" d="M95.2,232.1c-0.5,1.4-2,2.1-3.3,1.6c-1.3-0.5-1.9-2-1.3-3.4c0.5-1.4,2-2.1,3.3-1.6
					C95.1,229.2,95.7,230.7,95.2,232.1z"/>
				<path class="st9" d="M115.4,239.9c-0.5,1.4-2,2.1-3.3,1.6c-1.3-0.5-1.9-2-1.3-3.4c0.5-1.4,2-2.1,3.3-1.6
					C115.3,237.1,115.9,238.6,115.4,239.9z"/>
			</g>
			<g>
				<g>
					<line class="st10" x1="84.9" y1="235.9" x2="86.9" y2="235"/>
					<line class="st10" x1="86.9" y1="236.7" x2="88.9" y2="235.8"/>
					<line class="st10" x1="89" y1="237.5" x2="90.9" y2="236.5"/>
				</g>
				<g>
					<line class="st10" x1="110.4" y1="245.8" x2="112.4" y2="244.8"/>
					<line class="st10" x1="112.4" y1="246.5" x2="114.4" y2="245.6"/>
					<line class="st10" x1="114.4" y1="247.3" x2="116.4" y2="246.4"/>
				</g>
			</g>
			<path class="st8" d="M102.8,243.8c-0.4,1.1-2.2,2-3.7,1.4c-1.5-0.6-2.2-2.5-1.8-3.6c0.4-1.1,1.8-0.9,3.3-0.3
				C102.1,241.9,103.2,242.7,102.8,243.8z"/>
			<path class="st11" d="M101.2,249.5c0,0-2.3-0.6-2.6-3c-1.9,1.5-4,0.5-4,0.5"/>
		</g>
		<g class="st19">
			<path class="st7" d="M83.9,241c0.7,4.2-1.2,8.1-4.4,8.7c-3.2,0.6-6.4-2.4-7.1-6.6c-0.7-4.2,1.2-8.1,4.4-8.7
				C80,233.8,83.2,236.7,83.9,241z"/>
			<g>
				<path class="st8" d="M77.4,249.5l-0.5-2.7c0-0.2-0.2-0.4-0.5-0.3c-0.2,0-0.4,0.2-0.3,0.5l0.4,2.2
					C76.9,249.3,77.2,249.4,77.4,249.5z"/>
				<path class="st8" d="M81.2,245.7c-0.2,0-0.4,0.2-0.3,0.5l0.5,2.7c0.2-0.2,0.5-0.4,0.7-0.6l-0.4-2.2
					C81.6,245.8,81.4,245.6,81.2,245.7z"/>
				<path class="st8" d="M79.9,249.5l-0.7-4c0-0.2-0.2-0.4-0.5-0.3c-0.2,0-0.4,0.2-0.3,0.5l0.7,4c0.1,0,0.3,0,0.4,0
					C79.6,249.6,79.7,249.6,79.9,249.5z"/>
			</g>
		</g>
		<g class="st19">
			<path class="st7" d="M111.1,264.8c-3.9,1.9-8.1,1-9.5-1.9c-1.4-2.9,0.6-6.8,4.5-8.6c3.9-1.9,8.1-1,9.5,1.9
				C117,259.1,115,263,111.1,264.8z"/>
			<g>
				<path class="st8" d="M101.1,260.9l2.5-1.2c0.2-0.1,0.3-0.3,0.2-0.5c-0.1-0.2-0.3-0.3-0.5-0.2l-2,1
					C101.2,260.3,101.1,260.6,101.1,260.9z"/>
				<path class="st8" d="M105.8,263.5c-0.1-0.2-0.3-0.3-0.5-0.2l-2.5,1.2c0.2,0.2,0.5,0.4,0.8,0.5l2-1
					C105.8,263.9,105.9,263.7,105.8,263.5z"/>
				<path class="st8" d="M101.8,263.3l3.7-1.8c0.2-0.1,0.3-0.3,0.2-0.5c-0.1-0.2-0.3-0.3-0.5-0.2l-3.7,1.8c0,0.1,0.1,0.2,0.1,0.4
					C101.6,263,101.7,263.1,101.8,263.3z"/>
			</g>
		</g>
	</g>
	<g class="st0">
		<path class="st17" d="M167.1,445.2c0,2.7-25.3,4.8-56.4,4.8c-31.2,0-56.4-2.2-56.4-4.8c0-2.7,25.3-4.8,56.4-4.8
			C141.8,440.4,167.1,442.6,167.1,445.2z"/>
		<path class="st18" d="M84.8,398.8c2.4,2.5,3.6,4.3,1.3,9.7c-1.9,4.4-7.4,7.3-7.3,17.4c0.1,10.1,5.8,14.3,15.9,14.3
			s11.7-2.9,14-1.9c2.3,1,3.1,1.9,5.5,1.9s17.9-5.6,18.4-7.6c0.4-2-1.8-5.2-6.4-5.3c-4.5-0.1-8.6,2.3-10.5,1.9
			c-0.3-4.8-4.1-11.4-11.1-11.6c0,0,5.2-5.7,3.9-15.4c-1.1-7.8-3.6-8.6-3.6-8.6L84.8,398.8z"/>
		<path class="st18" d="M106,402.4c0,0,4.1-0.1,8.1,0.5c4.1,0.6,5.9,2.9,5.7,4.9c-0.2,3-7,6-16.3,6.8L106,402.4z"/>
		<g class="st19">
			<path class="st26" d="M118.3,393.7c-2.9-5,1.3-7.4,4.7-8.4c3.4-1,4.7-1.3,5.5-4.4c0.6-0.2,2.8,4.6,2.1,7.8
				c-0.7,3.7-2.6,8.4-7.8,7.7L118.3,393.7z"/>
			<path class="st27" d="M129.9,391.3c0.3-0.8,0.7-1.7,0.8-2.5c0.6-3.2-1.6-8.2-2.3-8c-0.7,3.1-2.1,3.4-5.6,4.5
				c-1.7,0.5-3.4,1.4-4.5,2.7c0.2,1,1.6,1.7,2.6,1.4c1.4-0.5,2.3-2.7,3.5-1.4c1.2,1.2-1.4,3.5,0.4,3.8c1.8,0.3,2.3-2.2,3.2-1.7
				C128.6,390.3,129.2,391,129.9,391.3z"/>
			
				<rect x="116.8" y="391.6" transform="matrix(0.5181 -0.8553 0.8553 0.5181 -281.3589 293.5119)" class="st28" width="6" height="9.6"/>
			<polygon class="st3" points="107.3,419.4 105.2,418.2 114.1,396.5 122.4,401.5 			"/>
		</g>
		<path class="st18" d="M71.4,426.9c0,0-4.9-6.4-7.4-5.4c-2.5,0.9-3.9,12.9,3.7,18c-3.5,0.4-2.9,2-1.9,2.7c1,0.7,7.8,2.5,11.7-1.1
			L71.4,426.9z"/>
		<path class="st21" d="M77,399.8c2.6,2.7,3.9,4.7,1.4,10.5c-2,4.7-8.1,7.9-8,18.9c0.1,11,6.3,15.5,17.3,15.5c11,0,12.7-3.1,15.2-2
			c2.5,1.1,3.4,2,6,2c2.6,0,19.4-6,19.9-8.2c0.5-2.2-2-5.6-6.9-5.7c-4.9-0.1-9.3,2.5-11.4,2c-0.4-5.2-4.4-12.4-12.1-12.5
			c0,0,5.7-6.2,4.2-16.7c-1.2-8.4-3.9-9.3-3.9-9.3L77,399.8z"/>
		<path class="st21" d="M100,403.7c0,0,4.4-0.1,8.8,0.5c4.4,0.7,6.4,3.2,6.2,5.3c-0.3,3.2-7.6,6.5-17.7,7.3L100,403.7z"/>
		<path class="st18" d="M102.6,403.7c-0.2-3.8-1.4-6.3-2.2-7.7l-18.3,3.1C90.3,404.5,102.6,403.7,102.6,403.7z"/>
		<g class="st19">
			<g>
				<g>
					<path class="st7" d="M71.9,346.1c6.2,9.9,9.3,22.2,5.2,24.8c-4.1,2.6-13.9-5.5-20.1-15.4c-6.2-9.9-6.6-17.9-2.4-20.5
						C58.6,332.5,65.7,336.2,71.9,346.1z"/>
					<path class="st8" d="M71.2,352.8c4.3,6.8,6.9,14.9,4.6,16.3c-2.2,1.4-8.4-4.5-12.7-11.3c-4.3-6.8-5-11.9-2.8-13.3
						C62.6,343.1,67,346,71.2,352.8z"/>
				</g>
				<g>
					<path class="st7" d="M92.2,341.9c-1.7,11.6,0.4,24.1,5.2,24.8c4.8,0.7,10.5-10.6,12.3-22.2c1.7-11.6-1.2-19-6-19.7
						C98.9,324,94,330.3,92.2,341.9z"/>
					<path class="st8" d="M95.5,347.7c-1.2,7.9-0.3,16.4,2.3,16.8c2.6,0.4,5.9-7.5,7.1-15.4c1.2-7.9-0.2-12.9-2.8-13.3
						C99.5,335.4,96.7,339.8,95.5,347.7z"/>
				</g>
			</g>
			<path class="st7" d="M114.6,379.3c2.5,12.1-7,20.6-20.3,23.4c-13.3,2.8-25.4-1.2-28-13.3c-2.5-12.1,5.6-27.1,18.9-29.9
				C98.6,356.7,112.1,367.2,114.6,379.3z"/>
			<g>
				<path class="st9" d="M82.3,386.2c0.3,1.4-0.5,2.8-1.9,3.1c-1.3,0.3-2.7-0.7-3-2.1c-0.3-1.4,0.5-2.8,1.9-3.1
					C80.7,383.8,82,384.7,82.3,386.2z"/>
				<path class="st9" d="M103.5,381.7c0.3,1.4-0.5,2.8-1.9,3.1c-1.3,0.3-2.7-0.7-3-2.1c-0.3-1.4,0.5-2.8,1.9-3.1
					C101.9,379.4,103.2,380.3,103.5,381.7z"/>
			</g>
			<g>
				<g>
					<line class="st10" x1="75.8" y1="394.9" x2="76.9" y2="393.1"/>
					<line class="st10" x1="77.9" y1="394.5" x2="79.1" y2="392.6"/>
					<line class="st10" x1="80" y1="394.1" x2="81.2" y2="392.2"/>
				</g>
				<g>
					<line class="st10" x1="102.5" y1="389.4" x2="103.7" y2="387.5"/>
					<line class="st10" x1="104.6" y1="388.9" x2="105.8" y2="387.1"/>
					<line class="st10" x1="106.7" y1="388.5" x2="107.9" y2="386.6"/>
				</g>
			</g>
			<path class="st8" d="M95.1,391.8c0.2,1.1-0.8,2.9-2.4,3.2c-1.6,0.3-3.2-0.9-3.4-2c-0.2-1.1,1-1.7,2.6-2.1
				C93.5,390.6,94.8,390.7,95.1,391.8z"/>
			<path class="st11" d="M96.8,397.5c0,0-2.2,0.7-3.8-1.1c-0.7,2.3-3.1,2.5-3.1,2.5"/>
		</g>
		<g class="st19">
			<g>
				<path class="st7" d="M168.5,427.4c-3.3,13.7-13.4,19.2-23.6,16.7c-10.2-2.5-16.6-12-13.3-25.7c3.3-13.7,15.1-26.4,25.3-23.9
					C167.1,397,171.8,413.7,168.5,427.4z"/>
			</g>
			<path class="st27" d="M156.9,394.5c-10.2-2.5-22,10.2-25.3,23.9c-0.6,2.5-0.9,4.8-0.9,7c0.6,0,1.3-0.2,2-0.8
				c4.4-3.3,6-9.8,7.9-7.8c1.9,1.9,4,8.7,7.7,2.5c3.6-6.2,4.8-10.5,7-8.1c2.2,2.4,1.7,7.2,6,4.3c4.3-3,5,0.9,4.9,6.3
				c0,2.1,0.9,4.4,2.1,5.8c0-0.1,0.1-0.2,0.1-0.3C171.8,413.7,167.1,397,156.9,394.5z"/>
			<path class="st27" d="M149.6,422c-1.5-0.7-3.7,5.3-2,5.9C149.3,428.6,151.8,423.1,149.6,422z"/>
			<path class="st27" d="M161.1,417.5c-1.1-0.5-2.7,3.8-1.4,4.3C160.9,422.2,162.7,418.3,161.1,417.5z"/>
			<path class="st27" d="M142.5,425.8c-1.2-0.2-1.6,4.4-0.3,4.5C143.5,430.4,144.3,426.2,142.5,425.8z"/>
		</g>
	</g>
	<g class="st0">
		<g class="st19">
			<path class="st29" d="M254.8,384.9c1.7,13.3-5.4,21.6-15.3,22.9c-9.9,1.3-18.8-5-20.5-18.3c-1.7-13.3,4.5-28.6,14.4-29.8
				C243.3,358.4,253.1,371.6,254.8,384.9z"/>
		</g>
		<path class="st17" d="M299.4,445.2c0,2.7-19.4,4.8-43.4,4.8c-24,0-43.4-2.2-43.4-4.8c0-2.7,19.4-4.8,43.4-4.8
			C280,440.4,299.4,442.6,299.4,445.2z"/>
		<path class="st18" d="M256.3,383.1c-2.6,6.1,2.2,11.3-2,16.4c-4.2,5.1-9.6,11.1-9,21.4c0.6,10.3,6.1,13.4,8,15
			c1.8,1.7,1,3.2,0,4.1c-1,0.9-2.9,4.6,1.1,4.6c4,0,29,0,30.8,0c1.8,0,2.4-2.3,1.4-4.1c-1-1.8-5.4-3.8-8.3-4.3
			c4-5.2,5.2-10.2,3.7-15.9c-1.5-5.7-5.7-7.8-6.5-9c-0.8-1.2-3.3-14.4-4.3-24C270.2,378.3,256.3,383.1,256.3,383.1z"/>
		<path class="st18" d="M269,390.5c7.2-1.6,14.4-0.4,15.1,2c0.7,2.3-6.8,8.5-15.7,9.4l-2.9-0.4l1.8-11H269z"/>
		<path class="st30" d="M234.3,387.5L234.3,387.5h-19.7c0,0,4.6,21.9,5.3,24.4c0.7,2.5,2.1,4.9,5.1,4.9c2.8,0,8.6,0,9.3,0
			c0,0,0.1,0,0.1,0c0.7,0,6.5,0,9.3,0c3,0,4.4-2.5,5.1-4.9c0.7-2.5,5.3-24.4,5.3-24.4H234.3z"/>
		<path class="st31" d="M254,387.5h-19.7h-0.1h-19.7c0,0,0.8,3.7,1.7,8.3l36.8-4.3C253.6,389.1,254,387.5,254,387.5z"/>
		<path class="st30" d="M256.6,386.7c0,1.6-1.3,2.8-2.8,2.8h-39.1c-1.6,0-2.8-1.3-2.8-2.8v-1.3c0-1.6,1.3-2.8,2.8-2.8h39.1
			c1.6,0,2.8,1.3,2.8,2.8V386.7z"/>
		<path class="st18" d="M230.9,421.7c0,0-6.6-6.2-9.2-4.7c-2.6,1.5-2,15.1,7.4,19.4c-3.8,1-2.8,2.7-1.6,3.3
			c1.2,0.6,9.2,1.3,12.8-3.4L230.9,421.7z"/>
		<path class="st21" d="M242.8,383.1c3.7,5.9,1,11.5-3.2,16.6c-4.2,5.1-11.7,10.9-11.1,21.2c0.6,10.3,6.1,13.4,8,15
			c1.8,1.7,1,3.2,0,4.1c-1,0.9-2.9,4.6,1.1,4.6c4,0,29,0,30.8,0c1.8,0,2.4-2.3,1.4-4.1c-1-1.8-5.4-3.8-8.3-4.3
			c4-5.2,5.2-10.2,3.7-15.9c-1.5-5.7-5.7-7.8-6.5-9c-0.8-1.2-2.5-11.4-1.3-24.4C253.1,378.7,242.8,383.1,242.8,383.1z"/>
		<g class="st19">
			<path class="st4" d="M273.9,349.4c-12.4-26.2-35.5-31.7-37.9-31.6c-1.2,0.1-2.7,9.3,3.1,16.9c7.6,10,26.3,14.4,26.3,14.4
				L273.9,349.4z"/>
			<path class="st7" d="M262.5,351c-19-21.9-42.7-21-45-20.1c-1.1,0.4-0.1,9.6,7.5,15.5c10,7.6,29.2,6.8,29.2,6.8L262.5,351z"/>
			<path class="st7" d="M236.7,366.7c-2.1,12.2,7.7,20.4,21.1,22.7c13.4,2.3,25.4-2.1,27.5-14.3c2.1-12.2-6.5-26.9-19.9-29.3
				C251.9,343.5,238.8,354.5,236.7,366.7z"/>
			<g>
				<path class="st9" d="M269.3,372.5c-0.3,1.4,0.6,2.8,2,3c1.3,0.2,2.6-0.8,2.9-2.2c0.3-1.4-0.6-2.8-2-3
					C270.8,370,269.5,371,269.3,372.5z"/>
				<path class="st9" d="M247.9,368.7c-0.3,1.4,0.6,2.8,2,3c1.3,0.2,2.6-0.8,2.9-2.2c0.3-1.4-0.6-2.8-2-3
					C249.4,366.3,248.1,367.3,247.9,368.7z"/>
			</g>
			<g>
				<g>
					<line class="st10" x1="276" y1="381" x2="274.8" y2="379.2"/>
					<line class="st10" x1="273.9" y1="380.6" x2="272.7" y2="378.8"/>
					<line class="st10" x1="271.8" y1="380.3" x2="270.6" y2="378.4"/>
				</g>
				<g>
					<line class="st10" x1="249.2" y1="376.3" x2="247.9" y2="374.5"/>
					<line class="st10" x1="247" y1="376" x2="245.8" y2="374.1"/>
					<line class="st10" x1="244.9" y1="375.6" x2="243.7" y2="373.8"/>
				</g>
			</g>
			<path class="st8" d="M256.7,378.5c-0.2,1.1,0.9,2.8,2.5,3.1c1.6,0.3,3.2-1,3.4-2.1c0.2-1.1-1.1-1.7-2.7-2
				C258.2,377.3,256.9,377.4,256.7,378.5z"/>
			<path class="st11" d="M255.1,384.2c0,0,2.3,0.6,3.8-1.2c0.8,2.3,3.2,2.4,3.2,2.4"/>
		</g>
		<path class="st32" d="M239.6,383.8c0,0,0.2,0,0.7,0c0.5,0,1.1,0.1,2,0.1c0.9,0.1,1.9,0.1,3.2,0.3c1.2,0.1,2.6,0.4,4.1,0.7
			c1.5,0.4,3.1,0.8,4.8,1.6c1.7,0.8,3.4,1.9,4.7,3.7l0.5,0.7c0.1,0.2,0.2,0.5,0.4,0.7l0.3,0.8c0.1,0.3,0.2,0.5,0.2,0.8
			c0.1,0.5,0.3,1.1,0.3,1.6l0.1,0.8l0,0.2l0,0.1l0,0.1c0,0,0,0,0,0.1v0l0,0.4c0,2.1-0.8,4.4-2,6.2c-1.2,1.8-2.9,3.3-4.6,4.4
			c-1.7,1.2-3.5,2-5.3,2.7c-3.5,1.4-7,2.2-10,2.7c-3,0.5-5.5,0.7-7.2,0.8c-0.9,0-1.6,0.1-2,0.1c-0.5,0-0.7,0-0.7,0v-3.7
			c0,0,0.2,0,0.7,0c0.4,0,1.1,0,1.9,0c1.7,0,4-0.1,6.8-0.5c2.8-0.4,6.1-1.1,9.3-2.3c1.6-0.6,3.3-1.4,4.7-2.4c1.5-1,2.8-2.2,3.8-3.6
			c0.5-0.7,0.9-1.4,1.1-2.2c0.2-0.4,0.2-0.8,0.3-1.2l0.1-0.6c0-0.2,0-0.5,0-0.7c0-1.6-0.4-3.2-1.3-4.3c-0.9-1.2-2.2-2.1-3.5-2.7
			c-1.4-0.6-2.8-1-4.2-1.2c-1.4-0.3-2.6-0.4-3.8-0.5c-1.1-0.1-2.2-0.1-3-0.1c-0.8,0-1.5,0-1.9,0c-0.5,0-0.7,0-0.7,0L239.6,383.8z"/>
		<path class="st21" d="M253.3,390c7.2-1.6,14.4-0.4,15.1,2c0.7,2.3-6.8,8.5-15.7,9.4l-2.9-0.4l1.8-11H253.3z"/>
	</g>
	<g class="st0">
		<path class="st18" d="M414.3,413c0,13.4-12,20.4-26.8,20.4c-14.8,0-26.8-6.9-26.8-20.4c0-13.4,12-27.6,26.8-27.6
			C402.3,385.4,414.3,399.5,414.3,413z"/>
		<path class="st17" d="M430.7,445.2c0,2.7-19.4,4.8-43.4,4.8c-24,0-43.4-2.2-43.4-4.8c0-2.7,19.4-4.8,43.4-4.8
			C411.3,440.4,430.7,442.6,430.7,445.2z"/>
		<path class="st33" d="M428.4,395.2c-0.9-0.2-15.1,9.1-16,9.1c-0.9-0.1-8.2-6.3-9.8-7.1c-1.6-0.8-7.3,6.9-8,7.1
			c-0.7,0.2-9.4-7.5-10.8-8c-1.4-0.5-11,8.1-11.6,8.5c-0.6,0.5-13.5-7.7-14.6-8.2c-1.1-0.5-4.9,8.8-5.3,9.1
			c-0.5,0.2-7.1-8.7-7.5-8.7c-0.3-0.1-1.7,1.7-2.1,4.2c-0.2,1.8-0.3,3.6-0.3,5.3c0,24.6,20.1,38,44.9,38c24.8,0,44.9-13.5,44.9-38
			c0-2.1-0.2-4.3-0.5-6.5C431.3,398,429.3,395.4,428.4,395.2z"/>
		<g class="st19">
			<path class="st7" d="M377.1,400.6c0.7,4.2-1.2,8.1-4.4,8.7c-3.2,0.6-6.4-2.4-7.1-6.6c-0.7-4.2,1.2-8.1,4.4-8.7
				C373.2,393.4,376.3,396.4,377.1,400.6z"/>
			<g>
				<path class="st8" d="M370.6,409.2l-0.5-2.7c0-0.2-0.2-0.4-0.5-0.3c-0.2,0-0.4,0.2-0.3,0.5l0.4,2.2
					C370,409,370.3,409.1,370.6,409.2z"/>
				<path class="st8" d="M374.4,405.3c-0.2,0-0.4,0.2-0.3,0.5l0.5,2.7c0.2-0.2,0.5-0.4,0.7-0.6l-0.4-2.2
					C374.8,405.5,374.6,405.3,374.4,405.3z"/>
				<path class="st8" d="M373,409.2l-0.7-4c0-0.2-0.2-0.4-0.5-0.3c-0.2,0-0.4,0.2-0.3,0.5l0.7,4c0.1,0,0.3,0,0.4,0
					C372.8,409.3,372.9,409.2,373,409.2z"/>
			</g>
		</g>
		<g class="st19">
			<path class="st7" d="M412.3,404c-1.7,3.9-5.5,6.1-8.4,4.8c-3-1.3-4-5.5-2.3-9.4c1.7-3.9,5.5-6.1,8.4-4.8
				C413,395.8,414,400,412.3,404z"/>
			<g>
				<path class="st8" d="M402.3,407.6l1.1-2.5c0.1-0.2,0-0.4-0.2-0.5c-0.2-0.1-0.4,0-0.5,0.2l-0.9,2.1
					C401.9,407.1,402.1,407.3,402.3,407.6z"/>
				<path class="st8" d="M407.5,406.4c-0.2-0.1-0.4,0-0.5,0.2l-1.1,2.5c0.3,0,0.6,0,0.9-0.1l0.9-2.1
					C407.8,406.7,407.7,406.5,407.5,406.4z"/>
				<path class="st8" d="M404.3,408.9l1.6-3.8c0.1-0.2,0-0.4-0.2-0.5c-0.2-0.1-0.4,0-0.5,0.2l-1.6,3.8c0.1,0.1,0.2,0.1,0.4,0.2
					C404,408.8,404.1,408.9,404.3,408.9z"/>
			</g>
		</g>
		<g class="st19">
			<g>
				<g>
					<path class="st7" d="M385.6,337.6c2,11.5,0.1,24.1-4.7,24.9c-4.8,0.8-10.8-10.4-12.7-21.9c-2-11.5,0.8-19,5.6-19.9
						C378.5,319.9,383.6,326,385.6,337.6z"/>
					<path class="st8" d="M382.4,343.5c1.4,7.9,0.6,16.4-1.9,16.9c-2.6,0.4-6.1-7.3-7.4-15.3c-1.4-7.9-0.1-12.9,2.5-13.4
						C378.2,331.2,381.1,335.5,382.4,343.5z"/>
				</g>
				<g>
					<path class="st7" d="M406,341.4c-6,10-8.8,22.4-4.6,24.9c4.2,2.5,13.8-5.8,19.8-15.8c6-10,6.2-18,2-20.5
						C419,327.5,412,331.4,406,341.4z"/>
					<path class="st8" d="M406.8,348c-4.1,6.9-6.5,15.1-4.3,16.4c2.3,1.4,8.3-4.6,12.5-11.5c4.1-6.9,4.7-12,2.5-13.4
						C415.2,338.2,410.9,341.1,406.8,348z"/>
				</g>
			</g>
			<path class="st7" d="M412.4,384.5c-2.3,12.2-14.3,16.4-27.7,13.9c-13.4-2.5-23.1-10.8-20.8-23c2.3-12.2,15.5-22.9,28.9-20.4
				C406.3,357.5,414.7,372.4,412.4,384.5z"/>
			<g>
				<path class="st9" d="M379.9,378.6c-0.3,1.4-1.6,2.4-2.9,2.2c-1.3-0.3-2.2-1.6-1.9-3.1c0.3-1.4,1.6-2.4,2.9-2.2
					C379.3,375.8,380.2,377.1,379.9,378.6z"/>
				<path class="st9" d="M401.3,382.6c-0.3,1.4-1.6,2.4-2.9,2.2c-1.3-0.2-2.2-1.6-1.9-3.1c0.3-1.4,1.6-2.4,2.9-2.2
					C400.7,379.7,401.5,381.1,401.3,382.6z"/>
			</g>
			<g>
				<g>
					<line class="st10" x1="370.6" y1="384.2" x2="372.3" y2="382.9"/>
					<line class="st10" x1="372.7" y1="384.6" x2="374.5" y2="383.3"/>
					<line class="st10" x1="374.8" y1="385" x2="376.6" y2="383.7"/>
				</g>
				<g>
					<line class="st10" x1="397.4" y1="389.2" x2="399.2" y2="387.9"/>
					<line class="st10" x1="399.5" y1="389.6" x2="401.3" y2="388.3"/>
					<line class="st10" x1="401.6" y1="390" x2="403.4" y2="388.7"/>
				</g>
			</g>
			<path class="st8" d="M389.6,388.6c-0.2,1.1-1.8,2.4-3.4,2.1c-1.6-0.3-2.6-2-2.4-3.2c0.2-1.1,1.6-1.2,3.2-0.9
				C388.6,386.9,389.8,387.5,389.6,388.6z"/>
			<path class="st11" d="M389.1,394.5c0,0-2.3-0.2-3.1-2.5c-1.6,1.9-3.8,1.2-3.8,1.2"/>
		</g>
		<g class="st19">
			<path class="st12" d="M389.8,411.7c0,2.8-1.1,6.3-2.5,6.3c-1.4,0-2.5-3.5-2.5-6.3c0-2.8,1.1-3.9,2.5-3.9
				C388.7,407.8,389.8,408.9,389.8,411.7z"/>
			<g>
				<path class="st13" d="M385.2,412.9c1.6,1.8,2.9,4.6,2.1,5.4c-0.9,0.8-3.6-0.7-5.2-2.5c-1.6-1.8-1.5-3.1-0.7-3.9
					C382.2,411.1,383.5,411.1,385.2,412.9z"/>
				<path class="st13" d="M389.5,412.9c-1.6,1.8-2.9,4.6-2.1,5.4c0.9,0.8,3.6-0.7,5.2-2.5c1.6-1.8,1.5-3.1,0.7-3.9
					C392.4,411.1,391.1,411.1,389.5,412.9z"/>
			</g>
			<path class="st14" d="M393.7,422.2c0,4.2-2.9,10.2-6.4,10.2c-3.5,0-6.4-6-6.4-10.2s2.9-4.9,6.4-4.9
				C390.8,417.3,393.7,418,393.7,422.2z"/>
		</g>
	</g>
</g>
<g id="DESIGNED_BY_FREEPIK" class="st0">
	<g class="st19">
		<g id="XMLID_269_">
			<g id="XMLID_288_">
				<path id="XMLID_296_" class="st7" d="M260.1,465.5c-0.4,0.4-0.8,0.9-1.1,1.5l-0.5-0.2c-0.1-0.3-0.3-0.5-0.7-0.5
					c-0.3,0-0.6,0.3-0.5,0.7c0,0.3,0.3,0.6,0.7,0.5c0.1,0,0.1,0,0.2-0.1l0.5,0.2c-0.3,0.6-0.4,1.1-0.5,1.7l0.7,0.1
					c0.2-1.3,0.8-2.5,1.8-3.5L260.1,465.5z"/>
				<path id="XMLID_295_" class="st7" d="M265.6,463.2c-0.2,0-0.3,0-0.5,0l-0.1-0.6c0.2-0.2,0.3-0.4,0.3-0.6c0-0.4-0.4-0.7-0.8-0.6
					c-0.4,0-0.7,0.4-0.6,0.8c0,0.3,0.2,0.5,0.4,0.6l0.1,0.6c-0.7,0.1-1.4,0.3-2.1,0.6l0.3,0.7c0.9-0.4,1.9-0.7,3-0.7
					c0.5,0,1,0.1,1.5,0.2l0.2-0.7C266.7,463.2,266.1,463.2,265.6,463.2z"/>
				<path id="XMLID_294_" class="st7" d="M272.2,465.7c0.3,0,0.6-0.3,0.5-0.7c0-0.3-0.3-0.6-0.7-0.5c-0.3,0-0.5,0.3-0.5,0.6
					l-0.4,0.4c-0.4-0.4-0.9-0.8-1.4-1.1l-0.4,0.6c1.1,0.7,2,1.7,2.6,2.9l0.7-0.3c-0.3-0.6-0.6-1.1-0.9-1.5l0.4-0.4
					C272.1,465.7,272.1,465.7,272.2,465.7z"/>
				<path id="XMLID_293_" class="st7" d="M265,473.4c-0.4,0-0.8,0-1.2,0c-0.9,0-1.7-0.1-2.5-0.2c-0.4-0.1-0.8-0.2-1.3-0.3
					c1,1.9,3.1,3.1,5.4,3.1c2.9,0,5.3-1.9,5.9-4.5c-0.7,0.4-1.5,0.8-2.5,1.1C267.8,473,266.5,473.3,265,473.4z"/>
				<path id="XMLID_289_" class="st7" d="M265.6,464.7c-3.4,0-6.1,2.7-6.1,5.9c0,0.4,0,0.8,0.1,1.3c0.7,0.5,2.7,0.9,5.3,0.7
					c2.9-0.2,5.3-1,6.7-2.2c0-0.2,0-0.4,0-0.6C271.2,466.9,268.6,464.7,265.6,464.7z M263.4,471.2c-1,0-1.8-0.8-1.8-1.8
					c0-1,0.8-1.9,1.8-1.9c1,0,1.8,0.8,1.8,1.9C265.3,470.4,264.5,471.2,263.4,471.2z M268.2,470.3c-0.8,0-1.4-0.6-1.4-1.4
					s0.6-1.4,1.4-1.4s1.4,0.6,1.4,1.4S268.9,470.3,268.2,470.3z"/>
			</g>
			<path id="XMLID_286_" class="st7" d="M281.6,466.5c-0.3-0.1-0.8-0.3-1.4-0.2c-0.6,0.1-0.8,0.3-0.8,1v0.9h2.2v1.7h-2.2v5.5h-1.9
				v-5.5h-1.3v-1.7h1.3v-0.9c0-1.7,0.9-2.8,2.6-2.8c0.6,0,1.2,0.1,1.6,0.3V466.5z"/>
			<path id="XMLID_284_" class="st7" d="M286.3,469.9c-0.2,0-0.4,0-0.5,0c-0.9,0-1.5,0.5-1.5,1.6v3.9h-1.9v-7.2h1.9v0.8
				c0.5-0.7,1.1-1,2-1c0.4,0,0.8,0.1,1.1,0.3L286.3,469.9z"/>
			<path id="XMLID_281_" class="st7" d="M294,471.8c0,0.2,0,0.5,0,0.7h-5.1c0.2,1,0.9,1.5,1.8,1.5c0.6,0,1.3-0.3,1.8-0.7l1.1,1.2
				c-0.8,0.7-1.9,1.1-3.1,1.1c-2.2,0-3.7-1.5-3.7-3.8c0-2.3,1.5-3.8,3.6-3.8C292.5,468,294,469.5,294,471.8z M288.9,471.1h3.2
				c-0.2-0.9-0.7-1.4-1.6-1.4C289.6,469.7,289,470.2,288.9,471.1z"/>
			<path id="XMLID_278_" class="st7" d="M301.6,471.8c0,0.2,0,0.5,0,0.7h-5.1c0.2,1,0.9,1.5,1.8,1.5c0.6,0,1.3-0.3,1.8-0.7l1.1,1.2
				c-0.8,0.7-1.8,1.1-3.1,1.1c-2.2,0-3.7-1.5-3.7-3.8c0-2.3,1.5-3.8,3.6-3.8C300.2,468,301.6,469.5,301.6,471.8z M296.5,471.1h3.2
				c-0.2-0.9-0.7-1.4-1.6-1.4C297.2,469.7,296.7,470.2,296.5,471.1z"/>
			<path id="XMLID_275_" class="st7" d="M310,471.8c0,2.2-1.5,3.8-3.5,3.8c-1,0-1.6-0.4-2.1-0.9v3.7h-1.9v-10.1h1.9v0.8
				c0.5-0.6,1.2-1,2.1-1C308.5,468,310,469.6,310,471.8z M304.3,471.8c0,1.1,0.7,2,1.8,2c1.1,0,1.8-0.9,1.8-2c0-1.1-0.7-2-1.8-2
				C305,469.8,304.3,470.6,304.3,471.8z"/>
			<path id="XMLID_272_" class="st7" d="M313.1,465.8c0,0.7-0.5,1.2-1.2,1.2c-0.7,0-1.2-0.5-1.2-1.2s0.5-1.2,1.2-1.2
				C312.5,464.6,313.1,465.1,313.1,465.8z M312.8,475.4h-1.9v-7.2h1.9V475.4z"/>
			<path id="XMLID_270_" class="st7" d="M316,470.7l2.7-2.6h2.4l-3.5,3.4l3.5,3.8h-2.4l-2.7-2.9v2.9h-1.9v-10.7h1.9V470.7z"/>
		</g>
		<g>
			<path class="st7" d="M184.4,475.3v-1.1c-0.5,0.7-1.4,1.2-2.4,1.2c-1.8,0-3.1-1.4-3.1-3.7c0-2.3,1.3-3.7,3.1-3.7
				c1,0,1.8,0.5,2.4,1.2v-3.8h1.1v9.8H184.4z M184.4,473.4v-3.2c-0.4-0.6-1.2-1.1-2.1-1.1c-1.4,0-2.3,1.2-2.3,2.7
				c0,1.6,0.8,2.7,2.3,2.7C183.2,474.5,184,474,184.4,473.4z"/>
			<path class="st7" d="M186.9,471.7c0-2.1,1.5-3.7,3.5-3.7c2.1,0,3.4,1.7,3.4,3.8v0.3h-5.7c0.1,1.3,1,2.4,2.5,2.4
				c0.8,0,1.6-0.3,2.2-0.9l0.5,0.7c-0.7,0.7-1.7,1.1-2.8,1.1C188.4,475.5,186.9,474,186.9,471.7z M190.4,469c-1.5,0-2.3,1.3-2.3,2.4
				h4.6C192.7,470.3,192,469,190.4,469z"/>
			<path class="st7" d="M194.6,474.4l0.6-0.8c0.5,0.5,1.4,1,2.3,1c1.1,0,1.7-0.5,1.7-1.2c0-1.7-4.4-0.7-4.4-3.3c0-1.1,1-2,2.6-2
				c1.2,0,2.1,0.5,2.6,1l-0.5,0.8c-0.4-0.5-1.2-0.9-2.1-0.9c-1,0-1.6,0.5-1.6,1.1c0,1.6,4.4,0.5,4.4,3.3c0,1.2-1,2.1-2.8,2.1
				C196.3,475.5,195.3,475.1,194.6,474.4z"/>
			<path class="st7" d="M201.5,466.5c0-0.4,0.3-0.7,0.7-0.7c0.4,0,0.7,0.3,0.7,0.7c0,0.4-0.3,0.7-0.7,0.7
				C201.8,467.2,201.5,466.9,201.5,466.5z M201.7,475.3v-7.1h1.1v7.1H201.7z"/>
			<path class="st7" d="M204.6,477.1l0.6-0.8c0.6,0.7,1.3,1,2.3,1c1.2,0,2.3-0.6,2.3-2.1v-1c-0.5,0.7-1.4,1.3-2.4,1.3
				c-1.8,0-3.2-1.4-3.2-3.7c0-2.3,1.3-3.7,3.2-3.7c1,0,1.8,0.5,2.4,1.2v-1.1h1.1v6.9c0,2.3-1.6,3.1-3.4,3.1
				C206.2,478.2,205.4,477.9,204.6,477.1z M209.7,473.3v-3.1c-0.4-0.6-1.2-1.1-2.1-1.1c-1.4,0-2.3,1.1-2.3,2.7
				c0,1.6,0.8,2.7,2.3,2.7C208.5,474.4,209.3,473.9,209.7,473.3z"/>
			<path class="st7" d="M217.4,475.3v-4.6c0-1.2-0.6-1.6-1.6-1.6c-0.9,0-1.7,0.5-2.1,1.1v5.2h-1.1v-7.1h1.1v1
				c0.5-0.6,1.5-1.2,2.5-1.2c1.5,0,2.3,0.7,2.3,2.3v5H217.4z"/>
			<path class="st7" d="M219.9,471.7c0-2.1,1.5-3.7,3.5-3.7c2.1,0,3.4,1.7,3.4,3.8v0.3h-5.7c0.1,1.3,1,2.4,2.5,2.4
				c0.8,0,1.6-0.3,2.2-0.9l0.5,0.7c-0.7,0.7-1.7,1.1-2.8,1.1C221.4,475.5,219.9,474,219.9,471.7z M223.4,469c-1.5,0-2.3,1.3-2.3,2.4
				h4.6C225.7,470.3,225,469,223.4,469z"/>
			<path class="st7" d="M233.4,475.3v-1.1c-0.5,0.7-1.4,1.2-2.4,1.2c-1.8,0-3.2-1.4-3.2-3.7c0-2.3,1.3-3.7,3.2-3.7
				c1,0,1.8,0.5,2.4,1.2v-3.8h1.1v9.8H233.4z M233.4,473.4v-3.2c-0.4-0.6-1.2-1.1-2.1-1.1c-1.4,0-2.3,1.2-2.3,2.7
				c0,1.6,0.8,2.7,2.3,2.7C232.1,474.5,233,474,233.4,473.4z"/>
			<path class="st7" d="M239.7,475.3v-9.8h1.1v3.8c0.6-0.8,1.4-1.2,2.4-1.2c1.8,0,3.2,1.5,3.2,3.7c0,2.3-1.3,3.7-3.2,3.7
				c-1,0-1.9-0.5-2.4-1.2v1.1H239.7z M242.9,474.5c1.4,0,2.3-1.2,2.3-2.7c0-1.6-0.8-2.7-2.3-2.7c-0.9,0-1.7,0.5-2.1,1.1v3.2
				C241.2,474,242,474.5,242.9,474.5z"/>
			<path class="st7" d="M247.5,477.1c0.2,0.1,0.4,0.1,0.6,0.1c0.5,0,0.8-0.2,1.1-0.7l0.5-1.1l-3-7.1h1.2l2.4,5.8l2.3-5.8h1.2
				l-3.5,8.5c-0.4,1-1.1,1.4-2.1,1.4c-0.2,0-0.6,0-0.8-0.1L247.5,477.1z"/>
		</g>
	</g>
</g>
</svg>
